<?xml version="1.0" encoding="UTF-8"?>
<svg id="Layer_1" data-name="Layer 1" xmlns="http://www.w3.org/2000/svg" viewBox="0 0 78.54 49.45">
  <defs>
    <style>
      .cls-1, .cls-2 {
        fill: #fff;
      }

      .cls-3 {
        letter-spacing: 0em;
      }

      .cls-4 {
        letter-spacing: 0em;
      }

      .cls-2 {
        font-family: VarelaRound-Regular, 'Varela Round';
        font-size: 30.92px;
      }
    </style>
  </defs>
  <text class="cls-2" transform="translate(0 34.97)"><tspan class="cls-3" x="0" y="0">A</tspan><tspan class="cls-4" x="22.88" y="0">nki</tspan></text>
  <path class="cls-1" d="m65.65,12.03v25.4l12.89,12.03V0l-12.89,12.03Zm11.02,22.7c-.37.17-.77.3-1.19.4-.42.1-.88.15-1.38.15-.37,0-.81-.04-1.31-.11-.51-.07-1-.24-1.48-.49-.48-.26-.89-.66-1.22-1.22-.33-.56-.49-1.31-.49-2.26v-9.59h-2.2c-.39,0-.59-.2-.59-.59,0-.21.09-.38.28-.53l4.21-4.11s.11-.1.2-.17c.09-.07.2-.11.32-.11.16,0,.3.06.42.19.11.12.17.27.17.43v2.47h3.49c.35,0,.64.11.87.34.23.23.34.52.34.87,0,.33-.11.61-.34.85-.23.24-.52.36-.87.36h-3.49v9.34c0,.6.11,1.03.34,1.3.23.27.5.43.82.48.32.05.6.08.85.08.49,0,.86-.05,1.1-.14.24-.09.49-.14.76-.14.29,0,.55.1.77.31.23.21.34.47.34.8,0,.47-.24.83-.71,1.08Z"/>
</svg>